<svg id="eJSBIj9KrNi1" xmlns="http://www.w3.org/2000/svg" xmlns:xlink="http://www.w3.org/1999/xlink" viewBox="0 0 256 43" shape-rendering="geometricPrecision" text-rendering="geometricPrecision">
<style><![CDATA[
#eJSBIj9KrNi2_tr {animation: eJSBIj9KrNi2_tr__tr 1000ms linear infinite normal forwards}@keyframes eJSBIj9KrNi2_tr__tr { 0% {transform: translate(21.964089px,21.5px) rotate(0deg);animation-timing-function: cubic-bezier(0.42,0,0.58,1)} 100% {transform: translate(21.964089px,21.5px) rotate(360deg)}} #eJSBIj9KrNi7_ts {animation: eJSBIj9KrNi7_ts__ts 1000ms linear infinite normal forwards}@keyframes eJSBIj9KrNi7_ts__ts { 0% {transform: translate(62.8184px,11.499976px) scale(1,1);animation-timing-function: cubic-bezier(0.42,0,0.58,1)} 30% {transform: translate(62.8184px,11.499976px) scale(0.864393,1);animation-timing-function: cubic-bezier(0.42,0,0.58,1)} 46% {transform: translate(62.8184px,11.499976px) scale(1,1)} 100% {transform: translate(62.8184px,11.499976px) scale(1,1)}} #eJSBIj9KrNi7 {animation: eJSBIj9KrNi7_c_o 1000ms linear infinite normal forwards}@keyframes eJSBIj9KrNi7_c_o { 0% {opacity: 1;animation-timing-function: cubic-bezier(0.42,0,0.58,1)} 50% {opacity: 0.5;animation-timing-function: cubic-bezier(0.42,0,0.58,1)} 100% {opacity: 1}} #eJSBIj9KrNi8_ts {animation: eJSBIj9KrNi8_ts__ts 1000ms linear infinite normal forwards}@keyframes eJSBIj9KrNi8_ts__ts { 0% {transform: translate(62.8184px,31.499996px) scale(1,1);animation-timing-function: cubic-bezier(0.42,0,0.58,1)} 40% {transform: translate(62.8184px,31.499996px) scale(1.097904,1);animation-timing-function: cubic-bezier(0.42,0,0.58,1)} 84% {transform: translate(62.8184px,31.499996px) scale(1,1)} 100% {transform: translate(62.8184px,31.499996px) scale(1,1)}} #eJSBIj9KrNi8 {animation: eJSBIj9KrNi8_c_o 1000ms linear infinite normal forwards}@keyframes eJSBIj9KrNi8_c_o { 0% {opacity: 1;animation-timing-function: cubic-bezier(0.42,0,0.58,1)} 50% {opacity: 0.5;animation-timing-function: cubic-bezier(0.42,0,0.58,1)} 100% {opacity: 1}}
]]></style>
<g id="eJSBIj9KrNi2_tr" transform="translate(21.964089,21.5) rotate(0)"><g transform="translate(-21.964089,-21.597675)" clip-path="url(#eJSBIj9KrNi5)"><g><path d="M21.9827,5.1942c.0019-.12851-.0225-.25606-.0717-.37482s-.122-.22621-.2142-.31578-.2017-.15935-.3218-.20507-.2483-.06642-.3767-.06082c-3.3474.18901-6.5685,1.34247-9.275,3.32125s-4.78256,4.69834-5.97793,7.83074-1.45893,6.5436-.75889,9.8224s2.3338,6.285,4.70418,8.656s5.37614,4.0056,8.65474,4.7065s6.69.4383,9.8226-.7563c3.1327-1.1945,5.8528-3.2699,7.8323-5.9758s3.1339-5.9268,3.3238-9.2741c.0044-.1282-.0172-.2561-.0634-.3758-.0463-.1197-.1162-.2288-.2057-.3207s-.1967-.1649-.3151-.2144c-.1184-.0494-.2456-.0744-.374-.0735-.4659,0-.9302-.0098-1.3961,0-.2563.0081-.5001.1126-.6827.2927s-.2903.4224-.3017.6786c-.1864,2.6862-1.1415,5.262-2.7514,7.4204-1.6099,2.1583-3.8067,3.808-6.3283,4.7523s-5.2617,1.1433-7.8933.5734c-2.6316-.57-5.0437-1.885-6.9486-3.788-1.905-1.903-3.22226-4.3139-3.79484-6.9449s-.37626-5.3713.56555-7.8939s2.58929-4.7209,4.74609-6.333s4.7317-2.56964,7.4177-2.75865c.2624-.01405.5098-.12692.6924-.31593s.2869-.44013.292-.7029v-1.36992Z" fill="#001931" fill-opacity="0.1"/></g><clipPath id="eJSBIj9KrNi5"><rect width="42" height="42" rx="0" ry="0" transform="translate(.818359 0.583984)" fill="#fff"/></clipPath></g></g><g id="eJSBIj9KrNi7_ts" transform="translate(62.8184,11.499976) scale(1,1)"><rect id="eJSBIj9KrNi7" width="96" height="15" rx="7.5" ry="7.5" transform="translate(0,-7.5)" fill="#001931" fill-opacity="0.1"/></g><g id="eJSBIj9KrNi8_ts" transform="translate(62.8184,31.499996) scale(1,1)"><rect id="eJSBIj9KrNi8" width="50" height="15" rx="7.5" ry="7.5" transform="translate(0,-7.5)" fill="#001931" fill-opacity="0.1"/></g></svg>
