<svg id="eteLsVWbTlu1" xmlns="http://www.w3.org/2000/svg" xmlns:xlink="http://www.w3.org/1999/xlink" viewBox="0 0 1200 409" shape-rendering="geometricPrecision" text-rendering="geometricPrecision">
<style><![CDATA[
#eteLsVWbTlu2 {animation: eteLsVWbTlu2_c_o 1000ms linear infinite normal forwards}@keyframes eteLsVWbTlu2_c_o { 0% {opacity: 1;animation-timing-function: cubic-bezier(0.42,0,0.58,1)} 50% {opacity: 0.5;animation-timing-function: cubic-bezier(0.42,0,0.58,1)} 100% {opacity: 1}}
]]></style>
<g id="eteLsVWbTlu2" transform="translate(0 0.000001)"><rect width="90" height="15" rx="7.5" ry="7.5" transform="translate(0 0.71582)" fill="#001931" fill-opacity="0.1"/><rect width="66" height="15" rx="7.5" ry="7.5" transform="translate(150 0.71582)" fill="#001931" fill-opacity="0.1"/><rect width="85" height="15" rx="7.5" ry="7.5" transform="translate(300 0.71582)" fill="#001931" fill-opacity="0.1"/><rect width="59" height="15" rx="7.5" ry="7.5" transform="translate(450 0.71582)" fill="#001931" fill-opacity="0.1"/><rect width="70" height="15" rx="7.5" ry="7.5" transform="translate(600 0.71582)" fill="#001931" fill-opacity="0.1"/><rect width="91" height="15" rx="7.5" ry="7.5" transform="translate(750 0.71582)" fill="#001931" fill-opacity="0.1"/><rect width="90" height="15" rx="7.5" ry="7.5" transform="translate(900 0.71582)" fill="#001931" fill-opacity="0.1"/><rect width="62" height="15" rx="7.5" ry="7.5" transform="translate(1050 0.71582)" fill="#001931" fill-opacity="0.1"/><rect width="87" height="15" rx="7.5" ry="7.5" transform="translate(0 40.0156)" fill="#001931" fill-opacity="0.1"/><rect width="97" height="15" rx="7.5" ry="7.5" transform="translate(150 40.0156)" fill="#001931" fill-opacity="0.1"/><rect width="65" height="15" rx="7.5" ry="7.5" transform="translate(300 40.0156)" fill="#001931" fill-opacity="0.1"/><rect width="77" height="15" rx="7.5" ry="7.5" transform="translate(450 40.0156)" fill="#001931" fill-opacity="0.1"/><rect width="78" height="15" rx="7.5" ry="7.5" transform="translate(600 40.0156)" fill="#001931" fill-opacity="0.1"/><rect width="88" height="15" rx="7.5" ry="7.5" transform="translate(750 40.0156)" fill="#001931" fill-opacity="0.1"/><rect width="87" height="15" rx="7.5" ry="7.5" transform="translate(900 40.0156)" fill="#001931" fill-opacity="0.1"/><rect width="53" height="15" rx="7.5" ry="7.5" transform="translate(1050 40.0156)" fill="#001931" fill-opacity="0.1"/><rect width="53" height="15" rx="7.5" ry="7.5" transform="translate(0 79.3159)" fill="#001931" fill-opacity="0.1"/><rect width="59" height="15" rx="7.5" ry="7.5" transform="translate(150 79.3159)" fill="#001931" fill-opacity="0.1"/><rect width="84" height="15" rx="7.5" ry="7.5" transform="translate(300 79.3159)" fill="#001931" fill-opacity="0.1"/><rect width="80" height="15" rx="7.5" ry="7.5" transform="translate(450 79.3159)" fill="#001931" fill-opacity="0.1"/><rect width="66" height="15" rx="7.5" ry="7.5" transform="translate(600 79.3159)" fill="#001931" fill-opacity="0.1"/><rect width="93" height="15" rx="7.5" ry="7.5" transform="translate(750 79.3159)" fill="#001931" fill-opacity="0.1"/><rect width="53" height="15" rx="7.5" ry="7.5" transform="translate(900 79.3159)" fill="#001931" fill-opacity="0.1"/><rect width="94" height="15" rx="7.5" ry="7.5" transform="translate(1050 79.3159)" fill="#001931" fill-opacity="0.1"/><rect width="55" height="15" rx="7.5" ry="7.5" transform="translate(0 118.616)" fill="#001931" fill-opacity="0.1"/><rect width="87" height="15" rx="7.5" ry="7.5" transform="translate(150 118.616)" fill="#001931" fill-opacity="0.1"/><rect width="90" height="15" rx="7.5" ry="7.5" transform="translate(300 118.616)" fill="#001931" fill-opacity="0.1"/><rect width="85" height="15" rx="7.5" ry="7.5" transform="translate(450 118.616)" fill="#001931" fill-opacity="0.1"/><rect width="83" height="15" rx="7.5" ry="7.5" transform="translate(600 118.616)" fill="#001931" fill-opacity="0.1"/><rect width="78" height="15" rx="7.5" ry="7.5" transform="translate(750 118.616)" fill="#001931" fill-opacity="0.1"/><rect width="55" height="15" rx="7.5" ry="7.5" transform="translate(900 118.616)" fill="#001931" fill-opacity="0.1"/><rect width="79" height="15" rx="7.5" ry="7.5" transform="translate(1050 118.616)" fill="#001931" fill-opacity="0.1"/><rect width="78" height="15" rx="7.5" ry="7.5" transform="translate(0 157.916)" fill="#001931" fill-opacity="0.1"/><rect width="63" height="15" rx="7.5" ry="7.5" transform="translate(150 157.916)" fill="#001931" fill-opacity="0.1"/><rect width="68" height="15" rx="7.5" ry="7.5" transform="translate(300 157.916)" fill="#001931" fill-opacity="0.1"/><rect width="51" height="15" rx="7.5" ry="7.5" transform="translate(450 157.916)" fill="#001931" fill-opacity="0.1"/><rect width="86" height="15" rx="7.5" ry="7.5" transform="translate(600 157.916)" fill="#001931" fill-opacity="0.1"/><rect width="62" height="15" rx="7.5" ry="7.5" transform="translate(750 157.916)" fill="#001931" fill-opacity="0.1"/><rect width="78" height="15" rx="7.5" ry="7.5" transform="translate(900 157.916)" fill="#001931" fill-opacity="0.1"/><rect width="98" height="15" rx="7.5" ry="7.5" transform="translate(1050 157.916)" fill="#001931" fill-opacity="0.1"/><rect width="73" height="15" rx="7.5" ry="7.5" transform="translate(0 197.216)" fill="#001931" fill-opacity="0.1"/><rect width="87" height="15" rx="7.5" ry="7.5" transform="translate(150 197.216)" fill="#001931" fill-opacity="0.1"/><rect width="87" height="15" rx="7.5" ry="7.5" transform="translate(300 197.216)" fill="#001931" fill-opacity="0.1"/><rect width="70" height="15" rx="7.5" ry="7.5" transform="translate(450 197.216)" fill="#001931" fill-opacity="0.1"/><rect width="89" height="15" rx="7.5" ry="7.5" transform="translate(600 197.216)" fill="#001931" fill-opacity="0.1"/><rect width="51" height="15" rx="7.5" ry="7.5" transform="translate(750 197.216)" fill="#001931" fill-opacity="0.1"/><rect width="73" height="15" rx="7.5" ry="7.5" transform="translate(900 197.216)" fill="#001931" fill-opacity="0.1"/><rect width="85" height="15" rx="7.5" ry="7.5" transform="translate(1050 197.216)" fill="#001931" fill-opacity="0.1"/><rect width="94" height="15" rx="7.5" ry="7.5" transform="translate(0 236.516)" fill="#001931" fill-opacity="0.1"/><rect width="75" height="15" rx="7.5" ry="7.5" transform="translate(150 236.516)" fill="#001931" fill-opacity="0.1"/><rect width="99" height="15" rx="7.5" ry="7.5" transform="translate(300 236.516)" fill="#001931" fill-opacity="0.1"/><rect width="86" height="15" rx="7.5" ry="7.5" transform="translate(450 236.516)" fill="#001931" fill-opacity="0.1"/><rect width="89" height="15" rx="7.5" ry="7.5" transform="translate(600 236.516)" fill="#001931" fill-opacity="0.1"/><rect width="75" height="15" rx="7.5" ry="7.5" transform="translate(750 236.516)" fill="#001931" fill-opacity="0.1"/><rect width="94" height="15" rx="7.5" ry="7.5" transform="translate(900 236.516)" fill="#001931" fill-opacity="0.1"/><rect width="88" height="15" rx="7.5" ry="7.5" transform="translate(1050 236.516)" fill="#001931" fill-opacity="0.1"/><rect width="86" height="15" rx="7.5" ry="7.5" transform="translate(0 275.816)" fill="#001931" fill-opacity="0.1"/><rect width="52" height="15" rx="7.5" ry="7.5" transform="translate(150 275.816)" fill="#001931" fill-opacity="0.1"/><rect width="64" height="15" rx="7.5" ry="7.5" transform="translate(300 275.816)" fill="#001931" fill-opacity="0.1"/><rect width="64" height="15" rx="7.5" ry="7.5" transform="translate(450 275.816)" fill="#001931" fill-opacity="0.1"/><rect width="50" height="15" rx="7.5" ry="7.5" transform="translate(600 275.816)" fill="#001931" fill-opacity="0.1"/><rect width="64" height="15" rx="7.5" ry="7.5" transform="translate(750 275.816)" fill="#001931" fill-opacity="0.1"/><rect width="86" height="15" rx="7.5" ry="7.5" transform="translate(900 275.816)" fill="#001931" fill-opacity="0.1"/><rect width="57" height="15" rx="7.5" ry="7.5" transform="translate(1050 275.816)" fill="#001931" fill-opacity="0.1"/><rect width="97" height="15" rx="7.5" ry="7.5" transform="translate(0 315.116)" fill="#001931" fill-opacity="0.1"/><rect width="98" height="15" rx="7.5" ry="7.5" transform="translate(150 315.116)" fill="#001931" fill-opacity="0.1"/><rect width="98" height="15" rx="7.5" ry="7.5" transform="translate(300 315.116)" fill="#001931" fill-opacity="0.1"/><rect width="88" height="15" rx="7.5" ry="7.5" transform="translate(450 315.116)" fill="#001931" fill-opacity="0.1"/><rect width="83" height="15" rx="7.5" ry="7.5" transform="translate(600 315.116)" fill="#001931" fill-opacity="0.1"/><rect width="58" height="15" rx="7.5" ry="7.5" transform="translate(750 315.116)" fill="#001931" fill-opacity="0.1"/><rect width="97" height="15" rx="7.5" ry="7.5" transform="translate(900 315.116)" fill="#001931" fill-opacity="0.1"/><rect width="81" height="15" rx="7.5" ry="7.5" transform="translate(1050 315.116)" fill="#001931" fill-opacity="0.1"/><rect width="61" height="15" rx="7.5" ry="7.5" transform="translate(0 354.416)" fill="#001931" fill-opacity="0.1"/><rect width="84" height="15" rx="7.5" ry="7.5" transform="translate(150 354.416)" fill="#001931" fill-opacity="0.1"/><rect width="51" height="15" rx="7.5" ry="7.5" transform="translate(300 354.416)" fill="#001931" fill-opacity="0.1"/><rect width="76" height="15" rx="7.5" ry="7.5" transform="translate(450 354.416)" fill="#001931" fill-opacity="0.1"/><rect width="92" height="15" rx="7.5" ry="7.5" transform="translate(600 354.416)" fill="#001931" fill-opacity="0.1"/><rect width="60" height="15" rx="7.5" ry="7.5" transform="translate(750 354.416)" fill="#001931" fill-opacity="0.1"/><rect width="61" height="15" rx="7.5" ry="7.5" transform="translate(900 354.416)" fill="#001931" fill-opacity="0.1"/><rect width="52" height="15" rx="7.5" ry="7.5" transform="translate(1050 354.416)" fill="#001931" fill-opacity="0.1"/><rect width="74" height="15" rx="7.5" ry="7.5" transform="translate(0 393.716)" fill="#001931" fill-opacity="0.1"/><rect width="56" height="15" rx="7.5" ry="7.5" transform="translate(150 393.716)" fill="#001931" fill-opacity="0.1"/><rect width="96" height="15" rx="7.5" ry="7.5" transform="translate(300 393.716)" fill="#001931" fill-opacity="0.1"/><rect width="86" height="15" rx="7.5" ry="7.5" transform="translate(450 393.716)" fill="#001931" fill-opacity="0.1"/><rect width="98" height="15" rx="7.5" ry="7.5" transform="translate(600 393.716)" fill="#001931" fill-opacity="0.1"/><rect width="90" height="15" rx="7.5" ry="7.5" transform="translate(750 393.716)" fill="#001931" fill-opacity="0.1"/><rect width="74" height="15" rx="7.5" ry="7.5" transform="translate(900 393.716)" fill="#001931" fill-opacity="0.1"/><rect width="79" height="15" rx="7.5" ry="7.5" transform="translate(1050 393.716)" fill="#001931" fill-opacity="0.1"/></g></svg>
