<svg width="16" height="16" viewBox="0 0 16 16" fill="none" xmlns="http://www.w3.org/2000/svg">
<g id="Frame" clip-path="url(#clip0_39082_14488)">
<path id="Vector" d="M6 10C6 8.1144 6 7.1716 6.58579 6.58579C7.1716 6 8.1144 6 10 6H10.6667C12.5523 6 13.4951 6 14.0809 6.58579C14.6667 7.1716 14.6667 8.1144 14.6667 10V10.6667C14.6667 12.5523 14.6667 13.4951 14.0809 14.0809C13.4951 14.6667 12.5523 14.6667 10.6667 14.6667H10C8.1144 14.6667 7.1716 14.6667 6.58579 14.0809C6 13.4951 6 12.5523 6 10.6667V10Z" stroke="#4D5E6F" stroke-width="1.5" stroke-linecap="round" stroke-linejoin="round"/>
<path id="Vector_2" d="M11.3333 5.99967C11.3317 4.02828 11.3019 3.00715 10.728 2.30796C10.6172 2.17293 10.4934 2.04913 10.3584 1.93831C9.62084 1.33301 8.52504 1.33301 6.33337 1.33301C4.14172 1.33301 3.04589 1.33301 2.30833 1.93831C2.1733 2.04912 2.04949 2.17293 1.93868 2.30796C1.33337 3.04553 1.33337 4.14135 1.33337 6.33301C1.33337 8.52467 1.33337 9.62047 1.93868 10.3581C2.04949 10.4931 2.1733 10.6169 2.30833 10.7277C3.00751 11.3015 4.02865 11.3313 6.00004 11.3329" stroke="#4D5E6F" stroke-width="1.5" stroke-linecap="round" stroke-linejoin="round"/>
</g>
<defs>
<clipPath id="clip0_39082_14488">
<rect width="16" height="16" fill="white"/>
</clipPath>
</defs>
</svg>
